<mxfile host="65bd71144e">
    <diagram id="S9cJ-4JyKLlqbvuT79AR" name="Page-1">
        <mxGraphModel dx="1265" dy="999" grid="1" gridSize="10" guides="1" tooltips="1" connect="1" arrows="1" fold="1" page="1" pageScale="1" pageWidth="850" pageHeight="1100" math="0" shadow="0">
            <root>
                <mxCell id="0"/>
                <mxCell id="1" parent="0"/>
                <mxCell id="2" value="" style="rounded=0;whiteSpace=wrap;html=1;" parent="1" vertex="1">
                    <mxGeometry width="700" height="580" as="geometry"/>
                </mxCell>
                <mxCell id="3" value="&lt;span style=&quot;font-family: helvetica; font-size: 12px; font-style: normal; letter-spacing: normal; text-align: center; text-indent: 0px; text-transform: none; word-spacing: 0px; display: inline; float: none;&quot;&gt;&lt;b&gt;Whalefin Environment&lt;/b&gt;&lt;/span&gt;" style="text;whiteSpace=wrap;html=1;labelBackgroundColor=#FFFFFF;fontColor=#000000;" parent="1" vertex="1">
                    <mxGeometry x="39.996666666666556" y="20.00111111111096" width="137" height="28" as="geometry"/>
                </mxCell>
                <mxCell id="4" value="" style="group;fontColor=#000000;" parent="1" vertex="1" connectable="0">
                    <mxGeometry x="247" y="10" width="177.5" height="90" as="geometry"/>
                </mxCell>
                <mxCell id="5" value="" style="group;fontColor=#000000;" parent="4" vertex="1" connectable="0">
                    <mxGeometry x="-6" width="183.5" height="90" as="geometry"/>
                </mxCell>
                <mxCell id="6" value="whalefin-asset" style="rounded=0;whiteSpace=wrap;html=1;fontColor=#000000;" parent="5" vertex="1">
                    <mxGeometry x="23.5" y="30" width="160" height="60" as="geometry"/>
                </mxCell>
                <mxCell id="7" value="" style="sketch=0;html=1;dashed=0;whitespace=wrap;fillColor=#2875E2;strokeColor=#000000;points=[[0.005,0.63,0],[0.1,0.2,0],[0.9,0.2,0],[0.5,0,0],[0.995,0.63,0],[0.72,0.99,0],[0.5,1,0],[0.28,0.99,0]];shape=mxgraph.kubernetes.icon;prIcon=api;shadow=0;fontSize=12;fontColor=#000000;" parent="5" vertex="1">
                    <mxGeometry width="50" height="48" as="geometry"/>
                </mxCell>
                <mxCell id="8" value="&lt;span style=&quot;font-family: helvetica; font-size: 12px; font-style: normal; letter-spacing: normal; text-align: center; text-indent: 0px; text-transform: none; word-spacing: 0px; display: inline; float: none;&quot;&gt;&lt;b&gt;Bitso Environment&lt;/b&gt;&lt;/span&gt;" style="text;whiteSpace=wrap;html=1;labelBackgroundColor=#FFFFFF;fontColor=#000000;" parent="1" vertex="1">
                    <mxGeometry x="39.99666666666653" y="260.00111111111096" width="137" height="28" as="geometry"/>
                </mxCell>
                <mxCell id="9" style="edgeStyle=none;html=1;entryX=0;entryY=0.5;entryDx=0;entryDy=0;fontColor=#000000;endArrow=classic;endFill=1;strokeColor=#000000;" parent="1" source="10" target="12" edge="1">
                    <mxGeometry relative="1" as="geometry">
                        <Array as="points">
                            <mxPoint x="129" y="530"/>
                        </Array>
                    </mxGeometry>
                </mxCell>
                <mxCell id="10" value="" style="sketch=0;html=1;aspect=fixed;strokeColor=none;shadow=0;align=center;verticalAlign=top;fillColor=#3B8DF1;shape=mxgraph.gcp2.clock;fontColor=#000000;" parent="1" vertex="1">
                    <mxGeometry x="106.5" y="390" width="45" height="45" as="geometry"/>
                </mxCell>
                <mxCell id="11" value="" style="group;fontColor=#000000;" parent="1" vertex="1" connectable="0">
                    <mxGeometry x="158.5" y="470" width="177.5" height="90" as="geometry"/>
                </mxCell>
                <mxCell id="12" value="bitso-whalefin-balance" style="rounded=0;whiteSpace=wrap;html=1;fontColor=#000000;" parent="11" vertex="1">
                    <mxGeometry x="17.5" y="30" width="160" height="60" as="geometry"/>
                </mxCell>
                <mxCell id="13" value="" style="verticalLabelPosition=bottom;html=1;verticalAlign=top;align=center;strokeColor=none;fillColor=#00BEF2;shape=mxgraph.azure.startup_task;pointerEvents=1;labelBackgroundColor=#2A2A2A;fontColor=#000000;gradientColor=none;shadow=0;" parent="11" vertex="1">
                    <mxGeometry width="47.5" height="50" as="geometry"/>
                </mxCell>
                <mxCell id="14" style="edgeStyle=none;html=1;entryX=0.5;entryY=1;entryDx=0;entryDy=0;fontColor=#000000;endArrow=classic;endFill=1;strokeColor=#000000;" parent="1" source="12" target="6" edge="1">
                    <mxGeometry relative="1" as="geometry">
                        <Array as="points">
                            <mxPoint x="256" y="290"/>
                            <mxPoint x="349" y="290"/>
                        </Array>
                    </mxGeometry>
                </mxCell>
                <mxCell id="15" value="&lt;font style=&quot;font-size: 12px&quot;&gt;get-balances&lt;/font&gt;" style="edgeLabel;html=1;align=center;verticalAlign=middle;resizable=0;points=[];fontColor=#000000;" parent="14" vertex="1" connectable="0">
                    <mxGeometry x="0.307" y="-4" relative="1" as="geometry">
                        <mxPoint x="-106" y="60" as="offset"/>
                    </mxGeometry>
                </mxCell>
                <mxCell id="16" value="" style="edgeStyle=none;html=1;fontColor=#000000;endArrow=none;endFill=0;strokeColor=#000000;dashed=1;" parent="1" source="17" target="20" edge="1">
                    <mxGeometry relative="1" as="geometry"/>
                </mxCell>
                <mxCell id="17" value="&lt;font color=&quot;#000000&quot;&gt;whalefin-aum-balances&lt;/font&gt;" style="sketch=0;points=[[0,0,0],[0.25,0,0],[0.5,0,0],[0.75,0,0],[1,0,0],[0,1,0],[0.25,1,0],[0.5,1,0],[0.75,1,0],[1,1,0],[0,0.25,0],[0,0.5,0],[0,0.75,0],[1,0.25,0],[1,0.5,0],[1,0.75,0]];outlineConnect=0;fontColor=#232F3E;gradientColor=#4D72F3;gradientDirection=north;fillColor=#3334B9;strokeColor=#000000;dashed=0;verticalLabelPosition=bottom;verticalAlign=top;align=center;html=1;fontSize=12;fontStyle=0;aspect=fixed;shape=mxgraph.aws4.resourceIcon;resIcon=mxgraph.aws4.aurora;" parent="1" vertex="1">
                    <mxGeometry x="538" y="261.48" width="66" height="66" as="geometry"/>
                </mxCell>
                <mxCell id="18" style="edgeStyle=none;html=1;entryX=0;entryY=0.5;entryDx=0;entryDy=0;entryPerimeter=0;fontColor=#000000;endArrow=classic;endFill=1;strokeColor=#000000;exitX=0.75;exitY=0;exitDx=0;exitDy=0;" parent="1" source="12" target="17" edge="1">
                    <mxGeometry relative="1" as="geometry">
                        <Array as="points">
                            <mxPoint x="296" y="400"/>
                            <mxPoint x="380" y="400"/>
                            <mxPoint x="380" y="294"/>
                        </Array>
                    </mxGeometry>
                </mxCell>
                <mxCell id="19" value="&lt;font style=&quot;font-size: 12px&quot;&gt;save-update&lt;/font&gt;" style="edgeLabel;html=1;align=center;verticalAlign=middle;resizable=0;points=[];fontColor=#000000;" parent="18" vertex="1" connectable="0">
                    <mxGeometry x="0.2104" y="-2" relative="1" as="geometry">
                        <mxPoint as="offset"/>
                    </mxGeometry>
                </mxCell>
                <mxCell id="20" value="&lt;font style=&quot;font-size: 10px;&quot;&gt;&lt;u&gt;AUM&lt;/u&gt;&lt;u&gt; Balance Entries&lt;/u&gt;&lt;/font&gt;&lt;span style=&quot;font-size: 10px&quot;&gt;&lt;span style=&quot;&quot;&gt;&lt;br&gt;[Currency] value_in_CeFi&lt;/span&gt;&lt;br&gt;&lt;/span&gt;" style="shape=note;size=20;whiteSpace=wrap;html=1;labelBackgroundColor=#FFFFFF;fontColor=#000000;dashed=1;" parent="1" vertex="1">
                    <mxGeometry x="502" y="385.98" width="138" height="77" as="geometry"/>
                </mxCell>
                <mxCell id="21" value="" style="rounded=0;whiteSpace=wrap;html=1;dashed=1;fontColor=#000000;align=left;" parent="1" vertex="1">
                    <mxGeometry x="188" y="350" width="135" height="15" as="geometry"/>
                </mxCell>
                <mxCell id="22" value="" style="rounded=0;whiteSpace=wrap;html=1;dashed=1;fontColor=#000000;align=left;" parent="1" vertex="1">
                    <mxGeometry x="323" y="330" width="135" height="15" as="geometry"/>
                </mxCell>
                <mxCell id="23" value="&lt;blockquote style=&quot;margin: 0 0 0 40px ; border: none ; padding: 0px&quot;&gt;&lt;br&gt;&lt;/blockquote&gt;" style="outlineConnect=0;dashed=0;verticalLabelPosition=bottom;verticalAlign=top;align=left;html=1;shape=mxgraph.aws3.api_gateway;fillColor=#D9A741;gradientColor=none;fontColor=#000000;" parent="1" vertex="1">
                    <mxGeometry x="323" y="170" width="51.82" height="63" as="geometry"/>
                </mxCell>
                <mxCell id="24" value="&lt;i&gt;/api/v2/asset/balance&lt;/i&gt;" style="verticalLabelPosition=bottom;html=1;verticalAlign=top;align=left;strokeColor=none;fillColor=#00BEF2;shape=mxgraph.azure.service_endpoint;fontColor=#000000;" parent="1" vertex="1">
                    <mxGeometry x="375" y="100.25" width="50" height="20" as="geometry"/>
                </mxCell>
                <mxCell id="25" value="&lt;i&gt;https://be.whalefin.com/&lt;/i&gt;" style="text;html=1;strokeColor=none;fillColor=none;align=center;verticalAlign=middle;whiteSpace=wrap;rounded=0;fontColor=#000000;" parent="1" vertex="1">
                    <mxGeometry x="379" y="188.5" width="141" height="30" as="geometry"/>
                </mxCell>
                <mxCell id="26" value="" style="endArrow=none;dashed=1;html=1;exitX=0.057;exitY=0.337;exitDx=0;exitDy=0;exitPerimeter=0;entryX=0.957;entryY=0.337;entryDx=0;entryDy=0;entryPerimeter=0;" parent="1" edge="1">
                    <mxGeometry width="50" height="50" relative="1" as="geometry">
                        <mxPoint x="40" y="159.99999999999977" as="sourcePoint"/>
                        <mxPoint x="670" y="159.99999999999977" as="targetPoint"/>
                    </mxGeometry>
                </mxCell>
                <mxCell id="27" value="" style="endArrow=none;dashed=1;html=1;exitX=0.057;exitY=0.337;exitDx=0;exitDy=0;exitPerimeter=0;entryX=0.957;entryY=0.337;entryDx=0;entryDy=0;entryPerimeter=0;" parent="1" edge="1">
                    <mxGeometry width="50" height="50" relative="1" as="geometry">
                        <mxPoint x="40" y="240" as="sourcePoint"/>
                        <mxPoint x="670" y="240" as="targetPoint"/>
                    </mxGeometry>
                </mxCell>
            </root>
        </mxGraphModel>
    </diagram>
</mxfile>